<svg width="66" height="64" viewBox="0 0 66 64" fill="none" xmlns="http://www.w3.org/2000/svg">
<g clip-path="url(#clip0_212_17)">
<path d="M33 5.33333C17.82 5.33333 5.5 17.28 5.5 32C5.5 46.72 17.82 58.6667 33 58.6667C48.18 58.6667 60.5 46.72 60.5 32C60.5 17.28 48.18 5.33333 33 5.33333ZM33 16C38.3075 16 42.625 20.1867 42.625 25.3333C42.625 30.48 38.3075 34.6667 33 34.6667C27.6925 34.6667 23.375 30.48 23.375 25.3333C23.375 20.1867 27.6925 16 33 16ZM33 53.3333C27.4175 53.3333 20.8175 51.1467 16.115 45.6533C20.7625 42.1333 26.62 40 33 40C39.38 40 45.2375 42.1333 49.885 45.6533C45.1825 51.1467 38.5825 53.3333 33 53.3333Z" fill="#CCCCCC"/>
</g>
<defs>
<clipPath id="clip0_212_17">
<rect width="66" height="64" fill="white"/>
</clipPath>
</defs>
</svg>
